<?xml version='1.0' encoding='UTF-8'?>
<svg viewBox="-6 -4 32 32" xmlns="http://www.w3.org/2000/svg">
  <g id="Layer_1" transform="translate(-6, -4)">
    <g id="List">
      <rect x="12" y="14" width="8" height="2" rx="0" ry="0" fill="#1177D7" class="Blue" />
    </g>
  </g>
  <g id="Layer_1" transform="translate(-6, -4)">
    <g id="List">
      <rect x="12" y="10" width="8" height="2" rx="0" ry="0" fill="#1177D7" class="Blue" />
    </g>
  </g>
  <g id="Layer_1" transform="translate(-6, -4)">
    <g id="List">
      <rect x="12" y="18" width="8" height="2" rx="0" ry="0" fill="#1177D7" class="Blue" />
    </g>
  </g>
  <g id="Layer_1" transform="translate(-6, -4)">
    <g id="List">
      <path d="M25, 4L7, 4C6.5, 4 6, 4.5 6, 5L6, 27C6, 27.5 6.5, 28 7, 28L25, 28C25.5, 28 26, 27.5 26, 27L26, 5C26, 4.5 25.5, 4 25, 4zM24, 26L8, 26L8, 6L24, 6L24, 26z" fill="#1177D7" class="Blue" />
    </g>
  </g>
  <g id="Layer_1" transform="translate(0, 12)">
    <g id="Undo">
      <path d="M6, 4L6, 0L0, 6L6, 12L6, 8C10.8, 8 14.9, 11.4 15.8, 16C15.9, 15.4 16, 14.7 16, 14C16, 8.5 11.5, 4 6, 4z" fill="#D11C1C" class="Red" />
    </g>
  </g>
</svg>